PathFileType	4	(X/Y/Z)	C:\Users\WrightLab\Desktop\Jo\P5V211.trc
DataRate	CameraRate	NumFrames	NumMarkers	Units	OrigDataRate	OrigDataStartFrame	OrigNumFrames
100.00	100.00	       8	19	mm	100.00	378	       754
Frame#	Time	Headset_Front			Headset_Back			Headset_Left			Headset_Right			Left_Shoulder			Right_Shoulder			Sternum			C7			Left Elbow			Right Elbow			Left Wrist			Right Wrist			Left ASIS			Right ASIS			S2			Left Knee			Right Knee			Left Ankle			Right Ankle			
		X1	Y1	Z1	X2	Y2	Z2	X3	Y3	Z3	X4	Y4	Z4	X5	Y5	Z5	X6	Y6	Z6	X7	Y7	Z7	X8	Y8	Z8	X9	Y9	Z9	X10	Y10	Z10	X11	Y11	Z11	X12	Y12	Z12	X13	Y13	Z13	X14	Y14	Z14	X15	Y15	Z15	X16	Y16	Z16	X17	Y17	Z17	X18	Y18	Z18	X19	Y19	Z19	

378	3.770	-216.46532	1465.01318	-136.56871				-87.96992	1599.59863	-236.11256	-314.14963	1563.46082	-196.18550	-0.27032	1507.17200	-434.69391	-386.52621	1449.37195	-313.38388	-175.57263	1308.27478	-311.10565	-243.21953	1522.95154	-492.75751	84.35030	1216.34363	-457.63168	-537.10413	1216.98230	-245.81009	65.16945	985.82922	-350.87451	-553.69629	1109.12170	-20.40676	-15.20573	928.52991	-338.92865	-299.26132	932.77313	-263.47354	-188.20247	975.62274	-576.23737	-8.90489	495.14008	-379.28003	-322.39734	507.22827	-239.13757	-104.62566	86.27030	-498.07623	-337.51956	102.50894	-199.32982	
379	3.780	-215.44989	1464.72168	-132.28773				-87.80956	1599.00146	-232.28552	-313.92279	1563.34033	-190.81621	-2.13000	1506.69006	-431.41949	-386.19443	1447.55408	-306.96085	-176.33871	1308.30823	-307.62955	-245.69908	1523.02661	-487.55197	82.35035	1215.42041	-453.80151	-536.28723	1215.29370	-238.53493	64.07077	985.31866	-347.69275	-549.08484	1108.07605	-14.51548	-16.71103	927.64935	-335.16843	-298.89301	932.29138	-258.62122	-190.24622	974.40088	-570.85559	-10.10997	495.28110	-377.24609	-322.23981	506.17633	-234.65944	-104.52863	86.41859	-497.99133	-336.59903	101.45927	-199.12506	
380	3.790	-213.44431	1464.63794	-127.63510				-87.73505	1598.84167	-229.43695	-313.00674	1562.11255	-184.71848	-3.78940	1506.53333	-429.28250	-386.60748	1446.93384	-300.77548	-176.93111	1307.29492	-303.12573	-247.63654	1522.22656	-482.48416	81.02297	1215.68201	-451.86148	-535.95801	1213.90955	-232.84184	62.53730	984.92181	-344.55530	-541.51990	1106.31531	-7.66278	-16.92586	927.30652	-331.28769	-298.33484	932.08832	-252.93315	-192.36317	973.62665	-564.68518	-10.70052	495.43036	-374.29434	-322.38870	504.96353	-228.87569	-104.40706	87.00209	-497.84409	-335.74094	99.81658	-201.25864	
381	3.800	-212.17900	1463.35474	-124.64791				-87.58838	1598.90283	-225.14328	-312.23557	1561.70947	-179.51384	-5.32363	1506.38599	-425.89035	-388.16724	1446.47314	-294.73547	-177.22327	1307.76001	-298.39774	-249.91949	1521.85596	-477.65842	79.46414	1215.25842	-450.02118	-535.09448	1211.77209	-226.66698	62.09824	984.69141	-342.05707	-535.85736	1105.13232	-2.09302	-17.10482	927.36353	-327.74991	-297.78702	931.97498	-246.98285	-194.73820	972.98297	-559.42975	-12.15466	495.71997	-371.59467	-320.92068	502.74057	-223.96875	-104.34180	87.05862	-497.41730	-334.50943	98.29170	-202.91000	
382	3.810	-211.48027	1462.96887	-120.53863				-87.44881	1598.75647	-222.63631	-311.47998	1561.50818	-173.55602	-7.30487	1505.70032	-423.63034	-388.24149	1446.25378	-288.94254	-177.78944	1307.36218	-292.63828	-251.87457	1521.18860	-472.87436	77.11396	1214.47205	-448.69498	-533.89886	1210.15588	-220.35643	60.58054	984.34271	-339.28757	-529.73291	1103.69202	2.89369	-17.44413	927.52429	-323.93088	-297.66229	931.77148	-239.12689	-197.29210	971.91913	-554.31085	-13.30521	494.74323	-368.74796	-320.09705	501.19916	-219.38622	-104.31342	87.12849	-497.37350	-333.17850	97.81965	-202.35570	
383	3.820	-209.46422	1463.29382	-114.39576				-87.26388	1599.17859	-219.83572	-310.23633	1560.86865	-167.42287	-9.64701	1505.25488	-421.00317	-388.52835	1445.73181	-281.89474	-178.47493	1307.58276	-288.46622	-254.56824	1521.03760	-467.54907	74.22781	1213.64978	-445.06104	-532.87567	1208.34692	-214.57133	60.16325	983.47546	-336.94388	-523.04980	1102.53967	9.65734	-17.70471	927.80408	-320.61389	-297.09323	931.32159	-233.19406	-200.24409	971.88354	-549.09235	-13.95476	495.19867	-364.17627	-318.35107	499.35043	-215.05336	-104.53518	87.70538	-497.12296	-331.95981	97.26763	-200.04938	
384	3.830	-208.10373	1462.94238	-110.38056				-87.04767	1599.42639	-216.33504	-309.40384	1561.12512	-162.14261	-11.79969	1504.75366	-418.25516	-389.89279	1444.89526	-275.60452	-178.52251	1307.51294	-283.57532	-256.85519	1520.90344	-462.11304	71.94549	1213.70715	-443.31372	-531.50726	1206.73694	-208.47632	59.54963	983.79285	-334.18228	-515.72382	1101.51038	14.81767	-18.98116	927.30493	-318.23114	-296.26990	931.65985	-227.51765	-203.02686	971.54907	-543.67035	-15.50730	494.51944	-361.17773	-316.62512	497.82104	-210.61372	-104.90147	88.10107	-497.07217	-331.21100	97.27666	-199.61028	
385	3.840	-205.30084	1463.60376	-104.95980				-86.72357	1599.78577	-212.51962	-308.34723	1561.42004	-155.97174	-13.34042	1505.28809	-416.01987	-390.03705	1444.75098	-269.42645	-178.87845	1308.15320	-278.43430	-259.54932	1521.24561	-457.05103	69.35786	1214.08643	-441.96356	-530.05908	1205.34167	-202.62148	58.14091	983.14764	-333.11728	-507.90115	1100.01733	19.98322	-19.73544	927.50085	-314.87625	-296.21194	931.49420	-222.55867	-205.80058	971.02240	-538.05347	-16.31862	493.60861	-357.37427	-315.67194	496.88104	-207.31407	-105.17875	88.26941	-496.85837	-330.19431	96.79673	-200.92455	
